<?xml version="1.0" encoding="UTF-8"?>
<svg id="Calque_1" xmlns="http://www.w3.org/2000/svg" viewBox="0 0 930.87 251.59">
    <defs>
        <style>
        .cls-1{fill:#00C674;}
        </style>
    </defs>
    
    <path class="cls-1" d="M227.86,122.77l-22.16-22.76,13.68,.18c13.36,.18,24.33-10.51,24.51-23.87h0c.18-13.36-10.51-24.33-23.87-24.51l-24.19-.32-31.77-.42,9.8-9.55c9.57-9.32,9.78-24.64,.45-34.21h0c-9.32-9.57-24.64-9.78-34.21-.45l-17.33,16.88-22.76,22.16,.18-13.68c.18-13.36-10.51-24.33-23.87-24.51h0c-13.36-.18-24.33,10.51-24.51,23.87l-.32,24.19-.42,31.77-9.55-9.8c-9.32-9.57-24.64-9.78-34.21-.45h0c-9.57,9.32-9.78,24.64-.45,34.21l16.88,17.33,22.16,22.76-13.68-.18c-13.36-.18-24.33,10.51-24.51,23.87h0c-.18,13.36,10.51,24.33,23.87,24.51l24.19,.32,31.77,.42-9.8,9.55c-9.57,9.32-9.78,24.64-.45,34.21h0c9.32,9.57,24.64,9.78,34.21,.45l17.33-16.88,22.76-22.16-.18,13.68c-.18,13.36,10.51,24.33,23.87,24.51h0c13.36,.18,24.33-10.51,24.51-23.87l.32-24.19,.42-31.77,9.55,9.8c9.32,9.57,24.64,9.78,34.21,.45h0c9.57-9.32,9.78-24.64,.45-34.21l-16.88-17.33Zm-102.06,61.7c-32.4,0-58.67-26.27-58.67-58.67,0-32.4,26.27-58.67,58.67-58.67,32.4,0,58.67,26.27,58.67,58.67,0,32.4-26.27,58.67-58.67,58.67Z"/>
    <g>
        <path class="cls-1" d="M339.73,61.37l36.47,71.42,36.66-71.42c3.23-6.65,8.17-9.69,15.39-9.69,9.31,0,13.87,7.03,13.87,13.49v121.38c0,7.6-5.51,13.49-12.92,13.49s-12.54-5.89-12.54-13.49v-43.12l.19-41.41-25.45,49.58c-4.18,8.17-7.6,12.35-15.77,12.35s-11.4-3.8-15.2-11.97l-25.07-48.44,.38,39.7v43.31c0,7.6-5.51,13.49-12.92,13.49s-12.54-5.89-12.54-13.49V65.16c0-6.65,4.56-13.49,13.87-13.49,7.22,0,12.16,3.04,15.58,9.69Z"/>
        <path class="cls-1" d="M470.42,60.42c0-7.03,5.89-12.54,12.92-12.54s13.11,5.51,13.11,12.54v7.03c0,7.41-5.7,12.92-13.11,12.92s-12.92-5.51-12.92-12.92v-7.03Zm0,44.45c0-7.22,5.7-13.11,12.92-13.11s13.11,5.89,13.11,13.11v82.82c0,7.22-5.7,12.92-13.11,12.92s-12.92-5.7-12.92-12.92V104.86Z"/>
        <path class="cls-1" d="M590.47,140.57c0-17.67-7.79-25.45-20.14-25.45-13.11,0-21.84,8.74-22.22,25.26v47.3c0,7.22-5.7,12.92-13.11,12.92s-12.92-5.7-12.92-12.92V104.86c0-7.22,5.7-13.11,12.92-13.11s13.11,5.89,13.11,13.11v3.42c6.65-10.07,16.72-16.53,32.1-16.53,24.12,0,36.28,15.01,36.28,41.6v54.33c0,7.22-5.89,12.92-13.11,12.92s-12.92-5.7-12.92-12.92v-47.11Z"/>
        <path class="cls-1" d="M709.19,184.83c-6.27,9.5-15.77,15.77-29.63,15.77-27.16,0-41.79-15.96-41.79-47.3v-14.25c0-29.25,14.25-47.3,41.79-47.3,13.68,0,23.36,5.7,29.63,14.44v-41.41c0-7.22,5.7-13.11,12.92-13.11s13.11,5.89,13.11,13.11v122.9c0,7.22-5.7,12.92-13.11,12.92s-12.92-5.7-12.92-12.92v-2.85Zm0-50.34c-1.52-13.68-11.21-22.03-22.6-22.03-13.49,0-22.03,8.74-22.03,25.64v16.15c0,16.91,8.17,25.83,21.65,25.83s22.98-11.4,22.98-25.83v-19.76Z"/>
        <path class="cls-1" d="M768.08,94.42v-19.38c0-7.41,5.7-13.11,12.92-13.11s13.11,5.7,13.11,13.11v19.38h15.77c5.7,0,10.26,4.75,10.26,10.45s-4.56,10.26-10.26,10.26h-15.77v46.54c0,12.92,4.37,16.91,13.11,16.91,1.14,0,3.99-.38,4.94-.38,6.27,0,9.69,4.18,9.69,10.26,0,5.13-3.23,8.74-7.98,10.26-3.04,1.33-7.22,1.9-11.21,1.9-20.89,0-34.57-10.64-34.57-35.14v-50.34h-6.46c-5.7,0-10.26-4.56-10.26-10.26s4.56-10.45,10.26-10.45h6.46Z"/>
        <path class="cls-1" d="M832.86,140.01c0-32.48,21.27-48.25,48.82-48.25s49.2,15.77,49.2,48.25v12.54c0,32.29-21.65,48.06-49.2,48.06s-48.82-15.77-48.82-48.06v-12.54Zm26.59,12.54c0,18.62,8.36,27.54,22.22,27.54s22.41-8.93,22.41-27.54v-12.73c0-18.62-8.55-27.35-22.41-27.35s-22.22,8.74-22.22,27.35v12.73Z"/>
    </g>
</svg>