<svg version="1.2" xmlns="http://www.w3.org/2000/svg" viewBox="0 0 252 252" width="252" height="252">
	<path id="Layer" fill-rule="evenodd" class="s0" d="m244.7 140.1c9.4 9.6 9.2 24.9-0.4 34.2-9.6 9.3-24.9 9.1-34.2-0.4l-9.6-9.8-0.4 31.7-0.3 24.2c-0.2 13.4-11.2 24.1-24.5 23.9-13.4-0.2-24.1-11.2-23.9-24.5l0.2-13.7-22.8 22.2-17.3 16.8c-9.6 9.4-24.9 9.2-34.2-0.4-9.3-9.6-9.1-24.9 0.4-34.2l9.8-9.6-31.7-0.4-24.2-0.3c-13.4-0.2-24.1-11.2-23.9-24.5 0.2-13.4 11.2-24.1 24.5-23.9l13.7 0.2-22.2-22.8-16.8-17.3c-9.4-9.6-9.2-24.9 0.4-34.2 9.6-9.3 24.9-9.1 34.2 0.4l9.6 9.8 0.4-31.7 0.3-24.2c0.2-13.4 11.2-24.1 24.5-23.9 13.4 0.2 24.1 11.2 23.9 24.5l-0.2 13.7 22.8-22.2 17.3-16.8c9.6-9.4 24.9-9.2 34.2 0.4 9.3 9.6 9.1 24.9-0.4 34.2l-9.8 9.6 31.7 0.4 24.2 0.3c13.4 0.2 24.1 11.2 23.9 24.5-0.2 13.4-11.2 24.1-24.5 23.9l-13.7-0.2 22.2 22.8zm-60.3-14.3c0-32.4-26.3-58.7-58.7-58.7-32.4 0-58.6 26.3-58.6 58.7 0 32.4 26.2 58.6 58.6 58.6 32.4 0 58.7-26.2 58.7-58.6z"/>
	<g id="Layer">
		<path id="Layer" class="s0" d="m339.7 61.4l36.5 71.4 36.7-71.4c3.2-6.7 8.1-9.7 15.4-9.7 9.3 0 13.8 7 13.8 13.5v121.3c0 7.6-5.5 13.5-12.9 13.5-7.4 0-12.5-5.8-12.5-13.5v-43.1l0.1-41.4-25.4 49.6c-4.2 8.2-7.6 12.3-15.8 12.3-8.1 0-11.4-3.8-15.2-11.9l-25-48.5 0.3 39.7v43.3c0 7.6-5.5 13.5-12.9 13.5-7.4 0-12.5-5.9-12.5-13.5v-121.3c0-6.7 4.5-13.5 13.8-13.5 7.3 0 12.2 3 15.6 9.7z"/>
		<path id="Layer" class="s0" d="m470.4 60.4c0-7 5.9-12.5 12.9-12.5 7.1 0 13.2 5.5 13.2 12.5v7.1c0 7.4-5.7 12.9-13.2 12.9-7.4 0-12.9-5.5-12.9-12.9zm0 44.4c0-7.2 5.7-13.1 12.9-13.1 7.3 0 13.2 5.9 13.2 13.1v82.8c0 7.2-5.7 12.9-13.2 12.9-7.4 0-12.9-5.7-12.9-12.9v-82.8z"/>
		<path id="Layer" class="s0" d="m590.5 140.6c0-17.7-7.8-25.5-20.2-25.5-13.1 0-21.8 8.8-22.2 25.3v47.3c0 7.2-5.7 12.9-13.1 12.9-7.4 0-12.9-5.7-12.9-12.9v-82.8c0-7.3 5.7-13.1 12.9-13.1 7.2 0 13.1 5.8 13.1 13.1v3.4c6.7-10.1 16.7-16.5 32.1-16.5 24.1 0 36.3 15 36.3 41.5v54.4c0 7.2-5.9 12.9-13.1 12.9-7.2 0-12.9-5.7-12.9-12.9 0 0 0-47.1 0-47.1z"/>
		<path id="Layer" fill-rule="evenodd" class="s0" d="m709.2 184.8c-6.3 9.5-15.8 15.8-29.6 15.8-27.2 0-41.8-16-41.8-47.3v-14.3c0-29.2 14.2-47.3 41.8-47.3 13.6 0 23.3 5.8 29.6 14.5v-41.4c0-7.2 5.7-13.1 12.9-13.1 7.2 0 13.1 5.9 13.1 13.1v122.9c0 7.2-5.7 12.9-13.1 12.9-7.4 0-12.9-5.7-12.9-12.9zm0-50.4c-1.5-13.6-11.2-22-22.6-22-13.5 0-22 8.7-22 25.6v16.2c0 16.9 8.1 25.8 21.6 25.8 13.5 0 23-11.4 23-25.8z"/>
		<path id="Layer" class="s0" d="m768.1 94.4v-19.4c0-7.4 5.7-13.1 12.9-13.1 7.2 0 13.1 5.7 13.1 13.1v19.4h15.8c5.7 0 10.2 4.8 10.2 10.5 0 5.7-4.5 10.2-10.2 10.2h-15.8v46.6c0 12.9 4.4 16.9 13.1 16.9 1.2 0 4-0.4 5-0.4 6.2 0 9.7 4.2 9.7 10.3 0 5.1-3.3 8.7-8 10.2-3.1 1.4-7.2 1.9-11.2 1.9-20.9 0-34.6-10.6-34.6-35.1v-50.4h-6.5c-5.7 0-10.2-4.5-10.2-10.2 0-5.7 4.5-10.5 10.2-10.5h6.5z"/>
		<path id="Layer" fill-rule="evenodd" class="s0" d="m832.9 140c0-32.5 21.2-48.2 48.8-48.2 27.5 0 49.2 15.7 49.2 48.2v12.5c0 32.3-21.7 48.1-49.2 48.1-27.6 0-48.8-15.8-48.8-48.1zm26.6 12.6c0 18.6 8.3 27.5 22.2 27.5 13.8 0 22.4-8.9 22.4-27.5v-12.7c0-18.7-8.6-27.4-22.4-27.4-13.9 0-22.2 8.7-22.2 27.4z"/>
	</g>
</svg>